<svg fill="none" height="18" viewBox="0 0 78 18" width="78" xmlns="http://www.w3.org/2000/svg"><path d="m25.5431.672075v16.646425c0 .3706-.3115.6721-.6943.6721h-4.4838c-.3828 0-.6943-.3015-.6943-.6721v-16.646425c0-.370583.3115-.672075.6943-.672075h4.4838c.3828 0 .6943.301492.6943.672075zm-7.0111 16.564725-5.2235-8.65057 4.9509-7.799525c.2385-.332897-.0065-.786705-.425-.786705l-5.4425.00942162c-.1719 0-.3341.08322428-.4298.22140838l-3.84626 6.32662h-2.24512v-5.885375c0-.370583-.31146-.672075-.6943-.672075h-4.482121c-.38446 0-.694299.301492-.694299.672075v16.646425c0 .3706.311461.6721.694299.6721h4.483751c.38283 0 .6943-.3015.6943-.6721v-5.8602h2.73177l3.82348 6.2952c.0941.1507.2628.2449.4445.2449h5.2186c.4056 0 .6538-.4287.4413-.7616zm58.7737.7538c.3828 0 .6943-.3015.6943-.6721v-16.646425c0-.370583-.3115-.672075-.6943-.672075h-4.3215c-.3829 0-.6943.301492-.6943.672075l.0276 8.515575-7.845-9.17822838h-4.9834c-.3828 0-.6943.30149138-.6943.67207538v16.648003c0 .3706.3099.6705.6927.6705h4.3118c.3828 0 .6927-.2999.6927-.6705v-8.52657l7.7654 9.18917zm-20.3083-17.247862v16.506662c0 .4099-.3439.7427-.7673.7427h-28.1239c-.4234 0-.7673-.3328-.7673-.7427v-16.506662c0-.409841.3439-.742738.7673-.742738h28.1256c.4217 0 .7656.332897.7656.742738zm-5.8366 4.040302c0-.14917-.1411-.26066-.2936-.23083-3.0384.58728-13.7968.67679-17.4046-.00471-.1492-.02826-.2871.08322-.2871.2324v8.167c0 .1444.1314.2544.2807.2339 2.9913-.4286 14.3629-.358 17.4321.0095.146.0172.2725-.0927.2725-.234z" fill="#fff"/></svg>